HIERARCHY
ROOT Hips
{
	OFFSET 0.00000 0.00000 0.00000
	CHANNELS 6 Xposition Yposition Zposition Zrotation Yrotation Xrotation 
	JOINT LHipJoint
	{
		OFFSET 0 0 0
		CHANNELS 3 Zrotation Yrotation Xrotation
		JOINT LeftHip
		{
			OFFSET 1.37959 -1.78713 0.86582
			CHANNELS 3 Zrotation Yrotation Xrotation
			JOINT LeftKnee
			{
				OFFSET 2.54611 -6.99539 0.00000
				CHANNELS 3 Zrotation Yrotation Xrotation
				JOINT LeftAnkle
				{
					OFFSET 2.59951 -7.14211 0.00000
					CHANNELS 3 Zrotation Yrotation Xrotation
					JOINT LeftToe
					{
						OFFSET 0.18493 -0.50810 1.96120
						CHANNELS 3 Zrotation Yrotation Xrotation
						End Site
						{
							OFFSET 0.00000 -0.00000 1.02054
						}
					}
				}
			}
		}
	}
	JOINT RHipJoint
	{
		OFFSET 0 0 0
		CHANNELS 3 Zrotation Yrotation Xrotation
		JOINT RightHip
		{
			OFFSET -1.33564 -1.78713 0.86582
			CHANNELS 3 Zrotation Yrotation Xrotation
			JOINT RightKnee
			{
				OFFSET -2.52705 -6.94302 0.00000
				CHANNELS 3 Zrotation Yrotation Xrotation
				JOINT RightAnkle
				{
					OFFSET -2.55964 -7.03257 0.00000
					CHANNELS 3 Zrotation Yrotation Xrotation
					JOINT RightToe
					{
						OFFSET -0.25804 -0.70896 2.12109
						CHANNELS 3 Zrotation Yrotation Xrotation
						End Site
						{
							OFFSET -0.00000 -0.00000 1.11821
						}
					}
				}
			}
		}
	}
	JOINT lowerback
	{
		OFFSET 0 0 0
		CHANNELS 3 Zrotation Yrotation Xrotation
		JOINT Chest
		{
			OFFSET -0.02031 2.24248 -0.18900
			CHANNELS 3 Zrotation Yrotation Xrotation
			JOINT Chest2
			{
				OFFSET 0.08342 2.24689 -0.03799
				CHANNELS 3 Zrotation Yrotation Xrotation
				JOINT lowerneck
				{
					OFFSET 0 0 0
					CHANNELS 3 Zrotation Yrotation Xrotation
					JOINT Neck
					{
						OFFSET -0.11607 1.55844 0.24628
						CHANNELS 3 Zrotation Yrotation Xrotation
						JOINT Head
						{
							OFFSET 0.06877 1.60174 -0.17013
							CHANNELS 3 Zrotation Yrotation Xrotation
							End Site
							{
								OFFSET 0.03358 1.61266 -0.08543
							}
						}
					}
				}
				JOINT LeftCollar
				{
					OFFSET 0 0 0
					CHANNELS 3 Zrotation Yrotation Xrotation
					JOINT LeftShoulder
					{
						OFFSET 3.47537 0.55866 -0.72348
CHANNELS 3 Zrotation Xrotation Yrotation
						JOINT LeftElbow
						{
OFFSET 0 -5.381540 0.000000
CHANNELS 3 Zrotation Xrotation Yrotation
							JOINT LeftWrist
							{
OFFSET 0 -3.333120 0.000000
CHANNELS 3 Zrotation Xrotation Yrotation
								JOINT lhand
								{
									OFFSET 0 0 0
CHANNELS 3 Zrotation Xrotation Yrotation
									JOINT LFingers
									{
OFFSET 0 -0.710790 0.000000
CHANNELS 3 Zrotation Xrotation Yrotation
										End Site
										{
OFFSET 0 -0.573060 0.000000
										}
									}
								}
								JOINT LThumb
								{
OFFSET 0 0.000000 0.000000
CHANNELS 3 Zrotation Xrotation Yrotation
									End Site
									{
OFFSET 0 -0.581810 0.581810
									}
								}
							}
						}
					}
				}
				JOINT RightCollar
				{
					OFFSET 0 0 0
					CHANNELS 3 Zrotation Yrotation Xrotation
					JOINT RightShoulder
					{
						OFFSET -3.27844 0.90739 -0.35708
CHANNELS 3 Zrotation Xrotation Yrotation
						JOINT RightElbow
						{
OFFSET 0 -5.169540 0.000000
CHANNELS 3 Zrotation Xrotation Yrotation
							JOINT RightWrist
							{
OFFSET 0 -3.382870 0.000000
CHANNELS 3 Zrotation Xrotation Yrotation
								JOINT rhand
								{
									OFFSET 0 0 0
CHANNELS 3 Zrotation Xrotation Yrotation
									JOINT RFingers
									{
OFFSET 0 -0.817970 0.000000
CHANNELS 3 Zrotation Xrotation Yrotation
										End Site
										{
OFFSET 0 -0.659470 0.000000
										}
									}
								}
								JOINT RThumb
								{
OFFSET 0 0.000000 0.000000
CHANNELS 3 Zrotation Xrotation Yrotation
									End Site
									{
OFFSET 0 -0.669530 0.669530
									}
								}
							}
						}
					}
				}
			}
		}
	}
}
MOTION
Frames: 12
Frame Time: 0.008333333333333333
16.996600 9.783900 -6.580600 94.558400 -85.266600 -122.278000 0.000000 0.000000 0.000000 -5.320700 -7.907600 -60.676100 13.692700 19.018200 71.263900 1.301400 3.046700 20.777900 1.146300 6.798400 19.119500 0.000000 0.000000 0.000000 1.531200 7.837100 -61.794800 -13.679200 -19.013800 71.222300 -1.139800 -6.599300 19.065300 -0.550400 -4.752900 13.205000 -1.385300 3.097500 40.652300 3.484200 1.441900 13.990300 3.931200 -0.414600 -4.139200 -4.612100 11.205100 -15.115600 -3.355500 16.081900 4.635700 0.963600 7.634200 4.107900 0.000000 -0.000000 0.000000 2.513000 -33.699600 -51.584500 47.422700 -51.901600 24.130700 21.523500 38.685100 -38.752500 0.000000 0.000000 0.000000 -7.125000 0.000000 0.000000 -19.989700 69.828300 12.035000 0.000000 -0.000000 0.000000 -19.383200 -31.098800 42.661300 -57.263000 -55.535400 -32.073900 -9.848700 4.274000 -14.724700 0.000000 0.000000 0.000000 7.125000 0.000000 -0.000000 11.974700 15.260700 8.593200
17.009216 9.804730 -6.583125 92.380049 -84.906951 -120.069556 0.000000 0.000000 0.000000 -5.843343 -7.904753 -60.518347 13.598542 18.987711 70.974539 1.307868 3.694277 20.719003 1.260671 7.112125 20.050219 0.000000 0.000000 0.000000 0.875997 7.727999 -61.959895 -13.737170 -19.032390 71.400320 -1.087870 -7.489324 18.636975 -0.977431 -6.291883 17.634278 -1.831352 3.185443 40.694844 3.437383 1.372005 14.005639 4.138145 -0.463737 -4.139837 -5.883986 10.322850 -16.371607 -2.399331 15.185702 5.728943 1.357262 7.165651 4.103497 0.000000 0.000000 0.000000 2.219899 -33.490533 -51.215867 47.863244 -52.096413 24.477844 21.684159 38.173494 -38.335487 0.000000 0.000000 0.000000 -7.125000 0.000000 0.000000 -19.217841 69.499578 11.418256 0.000000 0.000000 0.000000 -19.409371 -31.237491 42.352756 -57.375242 -55.568954 -32.166476 -9.148293 4.741344 -14.936827 0.000000 0.000000 0.000000 7.125000 0.000000 0.000000 12.438650 15.096416 8.987530
17.007433 9.800995 -6.586470 92.862302 -84.786029 -120.361885 0.000000 0.000000 0.000000 -6.128264 -7.675231 -60.779982 13.562569 18.975941 70.863981 1.319323 2.452211 21.047443 0.635530 5.100446 14.195195 0.000000 0.000000 0.000000 0.790745 7.996550 -62.089759 -13.719781 -19.026846 71.346779 -1.073776 -7.375915 18.511751 -0.758451 -5.561174 15.516617 -1.937765 3.279927 40.394567 3.457030 1.426903 14.237719 4.192574 -0.457572 -3.802385 -6.951995 9.450561 -16.889520 -1.357509 14.188515 5.996466 1.760593 6.703093 4.100213 0.000000 0.000000 0.000000 1.789991 -33.376497 -50.808824 48.644934 -52.433888 25.096096 21.279145 37.413711 -38.057993 0.000000 0.000000 0.000000 -7.125000 0.000000 0.000000 -19.354721 69.116739 11.336754 0.000000 0.000000 0.000000 -19.654527 -31.541882 42.132579 -57.595325 -55.634315 -32.348006 -9.889877 3.947919 -14.512158 0.000000 0.000000 0.000000 7.125000 0.000000 0.000000 11.952750 15.468533 8.522022
17.009845 9.791871 -6.585727 91.662435 -84.371845 -119.172002 0.000000 0.000000 0.000000 -6.597156 -7.561284 -60.791062 13.559606 18.975008 70.854890 1.316298 2.534089 21.005383 0.736236 5.476041 15.272825 0.000000 0.000000 0.000000 0.305932 7.840191 -62.314748 -13.772069 -19.043471 71.507181 -1.064853 -7.490695 18.439852 -0.981560 -6.305829 17.674603 -2.580239 3.369703 40.478520 3.399591 1.257159 14.350482 4.526040 -0.578442 -3.701548 -9.155686 8.735834 -16.008038 0.845419 13.336292 4.774762 2.561194 6.439575 3.309502 0.000000 0.000000 0.000000 2.022494 -33.132717 -49.752956 49.485497 -52.785794 25.763868 21.031630 36.545417 -37.831166 0.000000 0.000000 0.000000 -7.125000 0.000000 0.000000 -19.369810 68.831063 11.222608 0.000000 0.000000 0.000000 -19.521985 -31.743628 42.384812 -57.888510 -55.720522 -32.590231 -9.620393 3.615357 -14.444960 0.000000 0.000000 0.000000 7.125000 0.000000 0.000000 12.136297 15.552152 8.636705
16.998192 9.777141 -6.584326 89.876232 -84.114434 -117.193035 0.000000 0.000000 0.000000 -6.859646 -7.593543 -61.010952 13.575519 18.980185 70.903802 1.340829 2.456024 21.224407 0.783294 5.640575 15.747491 0.000000 0.000000 0.000000 0.008595 7.525677 -62.721801 -13.836710 -19.063739 71.705194 -1.085852 -7.301111 18.612936 -0.972878 -6.278938 17.596074 -2.765977 3.181724 40.252724 3.043671 0.913156 14.516116 4.368385 -0.751025 -3.411966 -6.236327 8.235993 -18.365433 -2.642278 12.694398 6.631545 1.269849 5.829128 4.713482 0.000000 0.000000 0.000000 2.144707 -33.146318 -48.403306 49.539518 -52.808105 25.806888 20.135141 35.865268 -36.257753 0.000000 0.000000 0.000000 -7.125000 0.000000 0.000000 -18.565853 67.103879 10.022124 0.000000 0.000000 0.000000 -18.939987 -32.108165 42.745152 -58.066074 -55.772116 -32.736986 -9.458628 3.745765 -15.070865 0.000000 0.000000 0.000000 7.125000 0.000000 0.000000 12.227017 14.943998 8.868058
16.998992 9.781902 -6.589105 91.268259 -84.112186 -118.315497 0.000000 0.000000 0.000000 -6.751417 -7.467626 -61.439893 13.599714 18.988114 70.978281 1.332003 2.444091 21.154274 0.665642 5.213218 14.518727 0.000000 0.000000 0.000000 0.069348 7.689877 -62.905458 -13.800307 -19.052373 71.593665 -1.061758 -7.457790 18.411047 -0.954336 -6.220912 17.426726 -2.825428 3.111023 40.200558 2.902470 0.793864 14.504173 4.292602 -0.804921 -3.395475 -5.990705 7.716413 -18.378498 -3.303070 11.979682 6.148088 0.963545 5.450357 4.637330 0.000000 0.000000 0.000000 2.183022 -32.905561 -47.621277 50.021246 -53.003586 26.191220 20.821717 35.921122 -35.899489 0.000000 0.000000 0.000000 -7.125000 0.000000 0.000000 -17.342499 66.972653 9.292381 0.000000 0.000000 0.000000 -18.655712 -32.087737 42.996973 -58.558790 -55.913432 -33.144691 -9.491430 3.675410 -15.098953 0.000000 0.000000 0.000000 7.125000 0.000000 0.000000 12.204290 14.914104 8.858743
17.000589 9.779623 -6.587077 96.414113 -84.873816 -123.294768 0.000000 0.000000 0.000000 -5.677747 -7.236305 -61.731552 13.627830 18.997246 71.064589 1.347793 2.715795 21.225059 0.929745 6.140621 17.193554 0.000000 0.000000 0.000000 1.125853 7.761236 -62.938959 -13.740317 -19.033399 71.409819 -1.039790 -7.213266 18.211799 -0.801724 -5.712054 15.951978 -2.344665 2.883805 40.299593 3.277397 0.696006 14.494475 4.479411 -0.861111 -3.433057 -6.552503 7.379954 -18.706710 -3.200780 11.697036 6.521702 1.076054 5.279218 4.774189 0.000000 0.000000 0.000000 1.979920 -32.316978 -46.450107 51.286200 -53.500761 27.204845 20.702418 35.762628 -36.663745 0.000000 0.000000 0.000000 -7.125000 0.000000 0.000000 -18.347326 67.650756 10.129911 0.000000 0.000000 0.000000 -19.093376 -32.163410 43.314312 -59.191656 -56.090488 -33.669382 -9.576059 3.420670 -15.427907 0.000000 0.000000 0.000000 7.125000 0.000000 0.000000 12.139529 14.583360 8.897027
17.000879 9.785388 -6.589036 93.475458 -84.510616 -120.345484 0.000000 0.000000 0.000000 -6.219565 -7.336787 -61.649272 13.603534 18.989308 70.989809 1.345301 2.847493 21.178287 0.957516 6.230736 17.455387 0.000000 0.000000 0.000000 0.735335 7.395735 -63.009903 -13.728417 -19.029584 71.373350 -1.042029 -7.301092 18.234085 -0.830340 -5.809347 16.233341 -2.783249 3.034466 40.460177 3.267080 0.698822 14.542790 4.694170 -0.883278 -3.433736 -6.166090 7.065612 -17.937828 -3.931950 11.138720 5.620411 0.699221 5.013387 4.447861 0.000000 0.000000 0.000000 1.928909 -31.806034 -46.024110 52.693599 -54.024114 28.340376 20.439237 35.126081 -36.149730 0.000000 0.000000 0.000000 -7.125000 0.000000 0.000000 -18.081439 67.093346 9.750014 0.000000 0.000000 0.000000 -19.385937 -32.188467 42.916863 -59.651551 -56.216297 -34.051305 -9.657869 3.171956 -15.525781 0.000000 0.000000 0.000000 7.125000 0.000000 0.000000 12.082472 14.481041 8.880423
17.006006 9.784985 -6.589423 94.927396 -84.832844 -121.636766 0.000000 0.000000 0.000000 -5.753895 -7.276058 -61.967389 13.648503 19.003916 71.128004 1.344546 3.174306 21.108973 1.099268 6.652526 18.693570 0.000000 0.000000 0.000000 1.078806 7.305689 -63.110165 -13.689414 -19.017108 71.253652 -1.024737 -7.537724 18.093302 -1.070717 -6.577862 18.470762 -2.408737 2.839241 40.540520 3.163280 0.608922 14.406740 4.424647 -0.895119 -3.591385 -5.098102 7.005343 -16.077326 -5.089038 10.662307 3.488990 0.078515 4.849678 4.035593 0.000000 0.000000 0.000000 1.955917 -31.694053 -45.602426 52.736780 -54.041356 28.374884 20.678260 35.340397 -36.426108 0.000000 0.000000 0.000000 -7.125000 0.000000 0.000000 -18.102064 67.422779 9.896001 0.000000 0.000000 0.000000 -19.014588 -31.906904 43.150795 -60.118319 -56.341365 -34.439613 -9.407022 3.372107 -14.778767 0.000000 0.000000 0.000000 7.125000 0.000000 0.000000 12.269986 15.235858 8.821859
17.013638 9.791900 -6.587913 100.898912 -85.436847 -127.455947 0.000000 0.000000 0.000000 -4.729904 -6.968226 -62.277155 13.716072 19.025691 71.335565 1.400440 3.107216 21.572926 1.410368 7.510520 21.237242 0.000000 0.000000 0.000000 2.017205 7.270978 -63.175873 -13.647849 -19.003743 71.126210 -1.007696 -7.700248 17.953193 -1.142334 -6.786934 19.085736 -1.616494 2.678255 40.568636 3.192382 0.686829 14.486999 4.016115 -0.839580 -3.505210 -4.821878 6.734493 -16.355034 -4.920237 10.239489 3.335895 0.062272 4.656130 4.041840 0.000000 0.000000 0.000000 1.984109 -31.691713 -45.421122 52.897547 -54.099347 28.505045 21.268989 35.263419 -35.839203 0.000000 0.000000 0.000000 -7.125000 0.000000 0.000000 -16.737876 67.047938 8.990813 0.000000 0.000000 0.000000 -18.860519 -32.043056 42.923559 -60.366818 -56.406816 -34.646447 -9.589222 3.222084 -14.768167 0.000000 0.000000 0.000000 7.125000 0.000000 0.000000 12.147825 15.234657 8.730288
17.011405 9.787208 -6.592905 95.033894 -84.434451 -121.445888 0.000000 0.000000 0.000000 -6.014182 -6.852709 -62.400370 13.674441 19.012318 71.207621 1.362581 3.395116 21.215665 1.469644 7.658737 21.683285 0.000000 0.000000 0.000000 0.763425 7.259524 -63.602541 -13.676860 -19.013067 71.215083 -1.030326 -7.810275 18.158081 -1.111614 -6.698464 18.825007 -3.069147 2.997271 40.521617 3.207384 0.511964 14.609793 4.846494 -0.996508 -3.362099 -5.730174 6.706869 -16.858541 -4.492202 10.390408 3.766294 0.321524 4.715605 3.764454 0.000000 0.000000 0.000000 1.600938 -31.662960 -44.625907 53.453161 -54.296609 28.955760 21.445998 35.634364 -36.748313 0.000000 0.000000 0.000000 -7.125000 0.000000 0.000000 -17.535472 67.955704 9.790285 0.000000 0.000000 0.000000 -19.426246 -32.387201 43.146542 -60.615548 -56.471746 -34.853755 -10.445410 2.757591 -15.078254 0.000000 0.000000 0.000000 7.125000 0.000000 0.000000 11.565597 14.870126 8.385490
17.010842 9.793383 -6.598369 95.993614 -84.548046 -122.270785 0.000000 0.000000 0.000000 -5.907586 -6.760848 -62.563416 13.671847 19.011451 71.199633 1.363676 3.062113 21.285376 1.197606 6.943606 19.548515 0.000000 0.000000 0.000000 0.903421 7.459874 -63.609586 -13.655132 -19.006043 71.148307 -1.015018 -7.270357 17.996025 -0.838772 -5.841740 16.326108 -2.946861 2.916352 40.456026 3.154492 0.442032 14.686838 4.750856 -1.031937 -3.248773 -5.484059 6.916452 -16.522218 -4.587077 10.568821 3.045656 0.308230 4.835473 3.905319 0.000000 0.000000 0.000000 1.774160 -31.431641 -44.239493 54.040957 -54.500726 29.433575 21.363919 35.548631 -36.417322 0.000000 0.000000 0.000000 -7.125000 0.000000 0.000000 -17.255523 67.621161 9.498618 0.000000 0.000000 0.000000 -19.257743 -32.412890 43.212024 -61.010216 -56.573194 -35.182879 -10.471404 2.904182 -15.383721 0.000000 0.000000 0.000000 7.125000 0.000000 0.000000 11.542057 14.565153 8.444718
